<?xml version="1.0" encoding="utf-8"?>
<svg version="1.1" id="Layer_1" xmlns="http://www.w3.org/2000/svg" xmlns:xlink="http://www.w3.org/1999/xlink" x="0px" y="0px"
	 viewBox="0 0 340.2 340.2" style="enable-background:new 0 0 340.2 340.2;" xml:space="preserve">
<path class="st0" d="M166.6,196l0.3-4.3c11.1,1,21.9,1.6,32.2,1.6c64.6,0,92.6-29,92.6-64.3c0-32.5-24.5-46.4-57.6-46.4
	c-44.6,0-81.2,28.6-104.4,115.2l-5-0.8l31.3-89.3l29.6-91.4L153.1,0c-23.4,0-43.4,6-55.5,13.2l1,14.4l30.5,8.9L94.6,217
	c-17.1,5.8-32.6,14-46.2,23.3l0.5,16.4h116.9l2.5-17.4c-11.4-3.4-22.6-6-33.6-7.5c2.9-12.9,6-24.7,9.3-35.3
	c47.1,18,75.8,47.5,75.8,74.4c0,34.3-27.3,47.5-57.5,47.5c-39.8,0-70.2-12.1-94.6-44.7l-10.1,4.5c16.7,34.9,58.6,61.9,119.7,61.9
	c72.4,0,110.6-32.8,110.6-72.9C288.1,213.9,216.1,201.6,166.6,196 M210.4,101.5c12.3,0,18.9,10.6,18.9,23.5c0,23.7-18.5,56-81.2,59
	C169.9,121.3,196.9,101.5,210.4,101.5"/>
</svg>
